<svg width="146" height="54" viewBox="0 0 146 54" fill="none" xmlns="http://www.w3.org/2000/svg">
<path d="M18.72 50.52C20.288 50.52 21.28 50.232 21.696 49.656C22.144 49.08 22.368 48.104 22.368 46.728V37.416H19.296V36.36H33.12V37.416H31.248V50.952H30.528C29.952 50.152 29.136 49.752 28.08 49.752C27.632 49.752 26.288 50.04 24.048 50.616C21.84 51.192 19.952 51.48 18.384 51.48C13.168 51.48 9.12 50.072 6.24 47.256C3.392 44.44 1.968 40.216 1.968 34.584C1.968 28.92 3.456 24.552 6.432 21.48C9.44 18.408 13.472 16.872 18.528 16.872C20.48 16.872 22.432 17.128 24.384 17.64C26.368 18.12 27.52 18.36 27.84 18.36C28.16 18.36 28.4 18.296 28.56 18.168C28.72 18.008 28.896 17.752 29.088 17.4H29.616L30 27.816H29.136C27.568 24.712 25.984 22.28 24.384 20.52C22.816 18.728 21.056 17.832 19.104 17.832C14.208 17.832 11.76 22.616 11.76 32.184V35.976C11.76 40.776 12.352 44.408 13.536 46.872C14.752 49.304 16.48 50.52 18.72 50.52Z" fill="#2B0548"/>
<path d="M37.016 38.9C36.776 38.804 36.608 38.684 36.512 38.54C36.44 38.396 36.404 38.204 36.404 37.964V36.38C36.404 36.14 36.44 35.948 36.512 35.804C36.608 35.66 36.776 35.54 37.016 35.444L52.928 28.208C53.072 28.16 53.18 28.136 53.252 28.136C53.54 28.136 53.684 28.304 53.684 28.64V31.484C53.684 31.748 53.636 31.94 53.54 32.06C53.468 32.18 53.312 32.288 53.072 32.384L42.02 37.136L53.072 41.888C53.312 41.984 53.468 42.092 53.54 42.212C53.636 42.332 53.684 42.524 53.684 42.788V45.704C53.684 46.04 53.54 46.208 53.252 46.208C53.108 46.208 53 46.184 52.928 46.136L37.016 38.9Z" fill="#2B0548"/>
<path d="M64 18V53" stroke="#2B0548"/>
<path d="M83.36 35.76C84.144 35.76 84.64 35.616 84.848 35.328C85.072 35.04 85.184 34.552 85.184 33.864V29.208H83.648V28.68H90.56V29.208H89.624V35.976H89.264C88.976 35.576 88.568 35.376 88.04 35.376C87.816 35.376 87.144 35.52 86.024 35.808C84.92 36.096 83.976 36.24 83.192 36.24C80.584 36.24 78.56 35.536 77.12 34.128C75.696 32.72 74.984 30.608 74.984 27.792C74.984 24.96 75.728 22.776 77.216 21.24C78.72 19.704 80.736 18.936 83.264 18.936C84.24 18.936 85.216 19.064 86.192 19.32C87.184 19.56 87.76 19.68 87.92 19.68C88.08 19.68 88.2 19.648 88.28 19.584C88.36 19.504 88.448 19.376 88.544 19.2H88.808L89 24.408H88.568C87.784 22.856 86.992 21.64 86.192 20.76C85.408 19.864 84.528 19.416 83.552 19.416C81.104 19.416 79.88 21.808 79.88 26.592V28.488C79.88 30.888 80.176 32.704 80.768 33.936C81.376 35.152 82.24 35.76 83.36 35.76ZM91.9438 19.2H99.2638V19.656H97.9438V35.544H99.2638V36H91.9438V35.544H93.2638V19.656H91.9438V19.2ZM107.747 27.504H106.475V35.544H108.035V36H100.235V35.544H101.795V19.656H100.235V19.2H107.483C109.563 19.2 111.035 19.312 111.899 19.536C112.779 19.744 113.395 20 113.747 20.304C114.515 20.928 114.899 21.92 114.899 23.28C114.899 24.64 114.563 25.616 113.891 26.208C113.219 26.784 112.195 27.128 110.819 27.24V27.312C112.115 27.488 113.019 27.872 113.531 28.464C114.043 29.056 114.299 30.048 114.299 31.44V32.712C114.299 33.544 114.339 34.104 114.419 34.392C114.515 34.68 114.707 34.824 114.995 34.824C115.283 34.824 115.507 34.696 115.667 34.44C115.843 34.168 116.003 33.608 116.147 32.76L116.555 32.808C116.379 34.168 116.067 35.08 115.619 35.544C115.187 36.008 114.315 36.24 113.003 36.24C111.691 36.24 110.755 35.936 110.195 35.328C109.651 34.704 109.379 33.544 109.379 31.848V30.096C109.379 29.2 109.259 28.544 109.019 28.128C108.795 27.712 108.371 27.504 107.747 27.504ZM106.475 19.656V27.048H107.243C108.155 27.048 108.827 26.768 109.259 26.208C109.707 25.648 109.931 24.736 109.931 23.472V22.776C109.931 21.512 109.715 20.68 109.283 20.28C108.867 19.864 108.195 19.656 107.267 19.656H106.475ZM117.559 19.2H126.199V19.728H123.655V35.472H124.519C125.879 35.472 126.959 35.056 127.759 34.224C128.575 33.392 129.399 32.112 130.231 30.384H130.735L130.279 36H117.559V35.472H118.975V19.728H117.559V19.2ZM139.152 35.736C139.952 35.736 140.656 35.52 141.264 35.088C141.888 34.656 142.2 34.008 142.2 33.144C142.2 32.264 141.864 31.592 141.192 31.128C140.536 30.664 139.592 30.264 138.36 29.928C137.144 29.576 136.256 29.272 135.696 29.016C135.152 28.76 134.632 28.424 134.136 28.008C133.144 27.176 132.648 25.888 132.648 24.144C132.648 22.72 133.152 21.496 134.16 20.472C135.184 19.448 136.576 18.936 138.336 18.936C139.184 18.936 140.064 19.064 140.976 19.32C141.904 19.56 142.48 19.68 142.704 19.68C142.928 19.68 143.128 19.52 143.304 19.2H143.568L143.736 24.048H143.352C142.584 22.656 141.776 21.544 140.928 20.712C140.096 19.864 139.184 19.44 138.192 19.44C137.216 19.44 136.456 19.672 135.912 20.136C135.368 20.584 135.096 21.192 135.096 21.96C135.096 22.712 135.416 23.296 136.056 23.712C136.712 24.112 137.512 24.44 138.456 24.696C139.4 24.952 140.016 25.128 140.304 25.224C140.608 25.32 140.976 25.456 141.408 25.632C141.856 25.792 142.216 25.968 142.488 26.16C142.776 26.336 143.072 26.568 143.376 26.856C143.696 27.128 143.944 27.432 144.12 27.768C144.552 28.536 144.768 29.448 144.768 30.504C144.768 32.232 144.224 33.624 143.136 34.68C142.064 35.72 140.648 36.24 138.888 36.24C137.976 36.24 136.928 36.12 135.744 35.88C134.576 35.64 133.928 35.52 133.8 35.52C133.576 35.52 133.36 35.76 133.152 36.24H132.816L132.576 30.528H132.984C133.688 31.92 134.584 33.136 135.672 34.176C136.776 35.216 137.936 35.736 139.152 35.736Z" fill="#2B0548"/>
<path d="M90.2773 52.3164C90.2773 52.4076 90.2383 52.5964 90.1602 52.8828C90.082 53.1562 90.0169 53.293 89.9648 53.293C89.9518 53.293 89.9193 53.2799 89.8672 53.2539L82.543 49.543C82.3086 49.4128 82.1914 49.1523 82.1914 48.7617C82.1914 48.5664 82.3086 48.4102 82.543 48.293L89.75 44.6406C89.8021 44.6146 89.8346 44.6016 89.8477 44.6016C89.9518 44.6016 90.0625 44.9076 90.1797 45.5195L90.1211 45.6953L83.7539 48.918L90.2188 52.1992C90.2578 52.2122 90.2773 52.2513 90.2773 52.3164ZM95.9609 44.4844C97.3932 44.4844 98.3828 44.8164 98.9297 45.4805C98.9297 46.3529 98.6888 46.7891 98.207 46.7891C97.9857 46.7891 97.8164 46.7435 97.6992 46.6523C97.582 46.5482 97.4323 46.3659 97.25 46.1055C96.8464 45.5065 96.3646 45.207 95.8047 45.207C95.2708 45.207 94.7826 45.4609 94.3398 45.9688C93.9102 46.4766 93.6953 47.2318 93.6953 48.2344C93.6953 49.276 93.9492 50.1419 94.457 50.832C94.9779 51.5221 95.694 51.8672 96.6055 51.8672C96.8789 51.8672 97.1393 51.8411 97.3867 51.7891C97.6341 51.737 97.8424 51.6784 98.0117 51.6133C98.194 51.5352 98.3438 51.4635 98.4609 51.3984C98.5911 51.3203 98.7018 51.2487 98.793 51.1836L98.9297 51.0859C99.0078 51.0859 99.0469 51.1706 99.0469 51.3398C99.0469 51.444 99.0078 51.5612 98.9297 51.6914C98.6693 52.056 98.2852 52.388 97.7773 52.6875C97.2695 52.974 96.7161 53.1172 96.1172 53.1172C95.0365 53.1172 94.1055 52.7135 93.3242 51.9062C92.556 51.0859 92.1719 50.0898 92.1719 48.918C92.1719 47.7201 92.4974 46.6849 93.1484 45.8125C93.7995 44.9271 94.737 44.4844 95.9609 44.4844ZM104.105 45.2266C103.415 45.2266 102.849 45.5456 102.406 46.1836C101.977 46.8086 101.762 47.5768 101.762 48.4883C101.762 49.556 102.035 50.474 102.582 51.2422C103.142 51.9974 103.793 52.375 104.535 52.375C105.225 52.375 105.792 52.0495 106.234 51.3984C106.677 50.7474 106.898 49.9661 106.898 49.0547C106.898 48 106.618 47.1016 106.059 46.3594C105.499 45.6042 104.848 45.2266 104.105 45.2266ZM104.32 44.4648C105.492 44.4648 106.495 44.888 107.328 45.7344C108.161 46.5807 108.578 47.5964 108.578 48.7812C108.578 49.9792 108.168 51.0078 107.348 51.8672C106.54 52.7135 105.544 53.1367 104.359 53.1367C103.174 53.1367 102.165 52.7135 101.332 51.8672C100.499 51.0078 100.082 49.9792 100.082 48.7812C100.082 47.5703 100.486 46.5482 101.293 45.7148C102.1 44.8815 103.109 44.4648 104.32 44.4648ZM114.164 45.2266C113.409 45.2266 112.816 45.5651 112.387 46.2422C111.957 46.9193 111.742 47.707 111.742 48.6055C111.742 49.556 111.996 50.3828 112.504 51.0859C113.012 51.776 113.715 52.1211 114.613 52.1211C115.056 52.1211 115.401 52.0234 115.648 51.8281C115.896 51.6198 116.02 51.3464 116.02 51.0078V46.3594C116.02 46.0859 115.87 45.832 115.57 45.5977C115.284 45.3503 114.815 45.2266 114.164 45.2266ZM114.418 44.4062C114.978 44.4062 115.466 44.5169 115.883 44.7383C115.974 44.7383 116.02 44.6211 116.02 44.3867V42.2773C116.02 41.8346 115.98 41.418 115.902 41.0273C115.837 40.819 115.505 40.7148 114.906 40.7148H114.73C114.652 40.7148 114.613 40.6432 114.613 40.5C114.613 40.2917 114.652 40.1875 114.73 40.1875C115.121 40.1484 115.479 40.0964 115.805 40.0312C116.143 39.9661 116.404 39.901 116.586 39.8359C116.781 39.7708 116.944 39.7122 117.074 39.6602C117.204 39.5951 117.302 39.543 117.367 39.5039L117.445 39.4453H117.484C117.536 39.4453 117.589 39.4844 117.641 39.5625C117.693 39.6276 117.725 39.6927 117.738 39.7578C117.595 40.1745 117.523 40.7409 117.523 41.457V50.2461C117.523 50.8711 117.562 51.3659 117.641 51.7305C117.667 51.8216 117.738 51.8932 117.855 51.9453C117.973 51.9974 118.09 52.0299 118.207 52.043C118.337 52.056 118.461 52.0625 118.578 52.0625L118.754 52.082C118.793 52.0951 118.812 52.1732 118.812 52.3164C118.812 52.5117 118.773 52.6094 118.695 52.6094C118.5 52.6224 118.279 52.6484 118.031 52.6875C117.797 52.7266 117.569 52.7721 117.348 52.8242C117.139 52.8633 116.944 52.9089 116.762 52.9609C116.579 53 116.43 53.0391 116.312 53.0781L116.137 53.1172C116.059 53.1172 116.02 53.0065 116.02 52.7852V52.5508C116.02 52.4727 115.993 52.4466 115.941 52.4727C115.212 52.8763 114.522 53.0781 113.871 53.0781C112.79 53.0781 111.885 52.694 111.156 51.9258C110.427 51.1576 110.062 50.2396 110.062 49.1719C110.062 47.9089 110.505 46.8021 111.391 45.8516C112.289 44.888 113.298 44.4062 114.418 44.4062ZM123.422 45.207C122.745 45.207 122.224 45.5 121.859 46.0859C121.508 46.6589 121.332 47.1341 121.332 47.5117C121.332 47.6029 121.371 47.6484 121.449 47.6484H125.258C125.323 47.6484 125.355 47.5833 125.355 47.4531C125.355 47.0365 125.18 46.5612 124.828 46.0273C124.477 45.4805 124.008 45.207 123.422 45.207ZM123.617 44.4844C124.216 44.4844 124.743 44.6016 125.199 44.8359C125.655 45.0573 126 45.3503 126.234 45.7148C126.482 46.0664 126.658 46.431 126.762 46.8086C126.879 47.1732 126.938 47.5378 126.938 47.9023C126.938 48.1628 126.898 48.3255 126.82 48.3906C126.742 48.4427 126.592 48.4688 126.371 48.4688H121.449C121.345 48.4688 121.293 48.5013 121.293 48.5664C121.293 49.3867 121.54 50.1419 122.035 50.832C122.53 51.5221 123.246 51.8672 124.184 51.8672C124.457 51.8672 124.717 51.8411 124.965 51.7891C125.212 51.737 125.421 51.6784 125.59 51.6133C125.772 51.5352 125.922 51.4635 126.039 51.3984C126.169 51.3203 126.28 51.2487 126.371 51.1836L126.508 51.0859C126.586 51.0859 126.625 51.1706 126.625 51.3398C126.625 51.444 126.586 51.5612 126.508 51.6914C126.247 52.056 125.863 52.388 125.355 52.6875C124.848 52.974 124.294 53.1172 123.695 53.1172C122.615 53.1172 121.684 52.7135 120.902 51.9062C120.134 51.0859 119.75 50.0898 119.75 48.918C119.75 47.5508 120.115 46.4701 120.844 45.6758C121.586 44.8815 122.51 44.4844 123.617 44.4844ZM128.734 45.5391C128.734 45.3698 128.773 45.1745 128.852 44.9531C128.943 44.7188 129.008 44.6016 129.047 44.6016C129.06 44.6016 129.092 44.6146 129.145 44.6406L136.371 48.293C136.592 48.4102 136.703 48.5664 136.703 48.7617C136.703 49.1654 136.592 49.4258 136.371 49.543L129.047 53.2539C128.995 53.2799 128.962 53.293 128.949 53.293C128.897 53.293 128.826 53.1562 128.734 52.8828C128.656 52.5964 128.617 52.4076 128.617 52.3164L128.676 52.1992L135.141 48.918L128.793 45.6953C128.754 45.6823 128.734 45.6302 128.734 45.5391Z" fill="#5945B3"/>
</svg>
