<svg width="146" height="58" viewBox="0 0 146 58" fill="none" xmlns="http://www.w3.org/2000/svg">
<path d="M18.72 50.52C20.288 50.52 21.28 50.232 21.696 49.656C22.144 49.08 22.368 48.104 22.368 46.728V37.416H19.296V36.36H33.12V37.416H31.248V50.952H30.528C29.952 50.152 29.136 49.752 28.08 49.752C27.632 49.752 26.288 50.04 24.048 50.616C21.84 51.192 19.952 51.48 18.384 51.48C13.168 51.48 9.12 50.072 6.24 47.256C3.392 44.44 1.968 40.216 1.968 34.584C1.968 28.92 3.456 24.552 6.432 21.48C9.44 18.408 13.472 16.872 18.528 16.872C20.48 16.872 22.432 17.128 24.384 17.64C26.368 18.12 27.52 18.36 27.84 18.36C28.16 18.36 28.4 18.296 28.56 18.168C28.72 18.008 28.896 17.752 29.088 17.4H29.616L30 27.816H29.136C27.568 24.712 25.984 22.28 24.384 20.52C22.816 18.728 21.056 17.832 19.104 17.832C14.208 17.832 11.76 22.616 11.76 32.184V35.976C11.76 40.776 12.352 44.408 13.536 46.872C14.752 49.304 16.48 50.52 18.72 50.52Z" fill="#24285B"/>
<path d="M37.016 39.2704C36.776 39.1744 36.608 39.0544 36.512 38.9104C36.44 38.7664 36.404 38.5744 36.404 38.3344V36.7504C36.404 36.5104 36.44 36.3184 36.512 36.1744C36.608 36.0304 36.776 35.9104 37.016 35.8144L52.928 28.5784C53.072 28.5304 53.18 28.5064 53.252 28.5064C53.54 28.5064 53.684 28.6744 53.684 29.0104V31.8544C53.684 32.1184 53.636 32.3104 53.54 32.4304C53.468 32.5504 53.312 32.6584 53.072 32.7544L42.02 37.5064L53.072 42.2584C53.312 42.3544 53.468 42.4624 53.54 42.5824C53.636 42.7024 53.684 42.8944 53.684 43.1584V46.0744C53.684 46.4104 53.54 46.5784 53.252 46.5784C53.108 46.5784 53 46.5544 52.928 46.5064L37.016 39.2704Z" fill="#24285B"/>
<path d="M64 20L64 54" stroke="#FFC864"/>
<path d="M83.36 36.5748C84.144 36.5748 84.64 36.4308 84.848 36.1428C85.072 35.8548 85.184 35.3668 85.184 34.6788V30.0228H83.648V29.4948H90.56V30.0228H89.624V36.7908H89.264C88.976 36.3908 88.568 36.1908 88.04 36.1908C87.816 36.1908 87.144 36.3348 86.024 36.6228C84.92 36.9108 83.976 37.0548 83.192 37.0548C80.584 37.0548 78.56 36.3508 77.12 34.9428C75.696 33.5348 74.984 31.4228 74.984 28.6068C74.984 25.7748 75.728 23.5908 77.216 22.0548C78.72 20.5188 80.736 19.7508 83.264 19.7508C84.24 19.7508 85.216 19.8788 86.192 20.1348C87.184 20.3748 87.76 20.4948 87.92 20.4948C88.08 20.4948 88.2 20.4628 88.28 20.3988C88.36 20.3188 88.448 20.1908 88.544 20.0148H88.808L89 25.2228H88.568C87.784 23.6708 86.992 22.4548 86.192 21.5748C85.408 20.6788 84.528 20.2308 83.552 20.2308C81.104 20.2308 79.88 22.6228 79.88 27.4068V29.3028C79.88 31.7028 80.176 33.5188 80.768 34.7508C81.376 35.9668 82.24 36.5748 83.36 36.5748ZM91.9438 20.0148H99.2638V20.4708H97.9438V36.3588H99.2638V36.8148H91.9438V36.3588H93.2638V20.4708H91.9438V20.0148ZM107.747 28.3188H106.475V36.3588H108.035V36.8148H100.235V36.3588H101.795V20.4708H100.235V20.0148H107.483C109.563 20.0148 111.035 20.1268 111.899 20.3508C112.779 20.5588 113.395 20.8148 113.747 21.1188C114.515 21.7428 114.899 22.7348 114.899 24.0948C114.899 25.4548 114.563 26.4308 113.891 27.0228C113.219 27.5988 112.195 27.9428 110.819 28.0548V28.1268C112.115 28.3028 113.019 28.6868 113.531 29.2788C114.043 29.8708 114.299 30.8628 114.299 32.2548V33.5268C114.299 34.3588 114.339 34.9188 114.419 35.2068C114.515 35.4948 114.707 35.6388 114.995 35.6388C115.283 35.6388 115.507 35.5108 115.667 35.2548C115.843 34.9828 116.003 34.4228 116.147 33.5748L116.555 33.6228C116.379 34.9828 116.067 35.8948 115.619 36.3588C115.187 36.8228 114.315 37.0548 113.003 37.0548C111.691 37.0548 110.755 36.7508 110.195 36.1428C109.651 35.5188 109.379 34.3588 109.379 32.6628V30.9108C109.379 30.0148 109.259 29.3588 109.019 28.9428C108.795 28.5268 108.371 28.3188 107.747 28.3188ZM106.475 20.4708V27.8628H107.243C108.155 27.8628 108.827 27.5828 109.259 27.0228C109.707 26.4628 109.931 25.5508 109.931 24.2868V23.5908C109.931 22.3268 109.715 21.4948 109.283 21.0948C108.867 20.6788 108.195 20.4708 107.267 20.4708H106.475ZM117.559 20.0148H126.199V20.5428H123.655V36.2868H124.519C125.879 36.2868 126.959 35.8708 127.759 35.0388C128.575 34.2068 129.399 32.9268 130.231 31.1988H130.735L130.279 36.8148H117.559V36.2868H118.975V20.5428H117.559V20.0148ZM139.152 36.5508C139.952 36.5508 140.656 36.3348 141.264 35.9028C141.888 35.4708 142.2 34.8228 142.2 33.9588C142.2 33.0788 141.864 32.4068 141.192 31.9428C140.536 31.4788 139.592 31.0788 138.36 30.7428C137.144 30.3908 136.256 30.0868 135.696 29.8308C135.152 29.5748 134.632 29.2388 134.136 28.8228C133.144 27.9908 132.648 26.7028 132.648 24.9588C132.648 23.5348 133.152 22.3108 134.16 21.2868C135.184 20.2628 136.576 19.7508 138.336 19.7508C139.184 19.7508 140.064 19.8788 140.976 20.1348C141.904 20.3748 142.48 20.4948 142.704 20.4948C142.928 20.4948 143.128 20.3348 143.304 20.0148H143.568L143.736 24.8628H143.352C142.584 23.4708 141.776 22.3588 140.928 21.5268C140.096 20.6788 139.184 20.2548 138.192 20.2548C137.216 20.2548 136.456 20.4868 135.912 20.9508C135.368 21.3988 135.096 22.0068 135.096 22.7748C135.096 23.5268 135.416 24.1108 136.056 24.5268C136.712 24.9268 137.512 25.2548 138.456 25.5108C139.4 25.7668 140.016 25.9428 140.304 26.0388C140.608 26.1348 140.976 26.2708 141.408 26.4468C141.856 26.6068 142.216 26.7828 142.488 26.9748C142.776 27.1508 143.072 27.3828 143.376 27.6708C143.696 27.9428 143.944 28.2468 144.12 28.5828C144.552 29.3508 144.768 30.2628 144.768 31.3188C144.768 33.0468 144.224 34.4388 143.136 35.4948C142.064 36.5348 140.648 37.0548 138.888 37.0548C137.976 37.0548 136.928 36.9348 135.744 36.6948C134.576 36.4548 133.928 36.3348 133.8 36.3348C133.576 36.3348 133.36 36.5748 133.152 37.0548H132.816L132.576 31.3428H132.984C133.688 32.7348 134.584 33.9508 135.672 34.9908C136.776 36.0308 137.936 36.5508 139.152 36.5508Z" fill="#24285B"/>
<path d="M90.2773 53.6868C90.2773 53.7779 90.2383 53.9667 90.1602 54.2532C90.082 54.5266 90.0169 54.6633 89.9648 54.6633C89.9518 54.6633 89.9193 54.6503 89.8672 54.6243L82.543 50.9133C82.3086 50.7831 82.1914 50.5227 82.1914 50.1321C82.1914 49.9368 82.3086 49.7805 82.543 49.6633L89.75 46.011C89.8021 45.9849 89.8346 45.9719 89.8477 45.9719C89.9518 45.9719 90.0625 46.2779 90.1797 46.8899L90.1211 47.0657L83.7539 50.2883L90.2188 53.5696C90.2578 53.5826 90.2773 53.6217 90.2773 53.6868ZM95.9609 45.8547C97.3932 45.8547 98.3828 46.1868 98.9297 46.8508C98.9297 47.7232 98.6888 48.1594 98.207 48.1594C97.9857 48.1594 97.8164 48.1139 97.6992 48.0227C97.582 47.9185 97.4323 47.7362 97.25 47.4758C96.8464 46.8769 96.3646 46.5774 95.8047 46.5774C95.2708 46.5774 94.7826 46.8313 94.3398 47.3391C93.9102 47.8469 93.6953 48.6021 93.6953 49.6047C93.6953 50.6464 93.9492 51.5123 94.457 52.2024C94.9779 52.8925 95.694 53.2375 96.6055 53.2375C96.8789 53.2375 97.1393 53.2115 97.3867 53.1594C97.6341 53.1073 97.8424 53.0487 98.0117 52.9836C98.194 52.9055 98.3438 52.8339 98.4609 52.7688C98.5911 52.6907 98.7018 52.6191 98.793 52.554L98.9297 52.4563C99.0078 52.4563 99.0469 52.5409 99.0469 52.7102C99.0469 52.8144 99.0078 52.9316 98.9297 53.0618C98.6693 53.4264 98.2852 53.7584 97.7773 54.0579C97.2695 54.3443 96.7161 54.4875 96.1172 54.4875C95.0365 54.4875 94.1055 54.0839 93.3242 53.2766C92.556 52.4563 92.1719 51.4602 92.1719 50.2883C92.1719 49.0904 92.4974 48.0553 93.1484 47.1829C93.7995 46.2974 94.737 45.8547 95.9609 45.8547ZM104.105 46.5969C103.415 46.5969 102.849 46.9159 102.406 47.554C101.977 48.179 101.762 48.9472 101.762 49.8586C101.762 50.9264 102.035 51.8443 102.582 52.6125C103.142 53.3678 103.793 53.7454 104.535 53.7454C105.225 53.7454 105.792 53.4198 106.234 52.7688C106.677 52.1178 106.898 51.3365 106.898 50.425C106.898 49.3704 106.618 48.4719 106.059 47.7297C105.499 46.9745 104.848 46.5969 104.105 46.5969ZM104.32 45.8352C105.492 45.8352 106.495 46.2584 107.328 47.1047C108.161 47.9511 108.578 48.9667 108.578 50.1516C108.578 51.3495 108.168 52.3782 107.348 53.2375C106.54 54.0839 105.544 54.5071 104.359 54.5071C103.174 54.5071 102.165 54.0839 101.332 53.2375C100.499 52.3782 100.082 51.3495 100.082 50.1516C100.082 48.9407 100.486 47.9185 101.293 47.0852C102.1 46.2519 103.109 45.8352 104.32 45.8352ZM114.164 46.5969C113.409 46.5969 112.816 46.9355 112.387 47.6125C111.957 48.2896 111.742 49.0774 111.742 49.9758C111.742 50.9264 111.996 51.7532 112.504 52.4563C113.012 53.1464 113.715 53.4915 114.613 53.4915C115.056 53.4915 115.401 53.3938 115.648 53.1985C115.896 52.9902 116.02 52.7167 116.02 52.3782V47.7297C116.02 47.4563 115.87 47.2024 115.57 46.968C115.284 46.7206 114.815 46.5969 114.164 46.5969ZM114.418 45.7766C114.978 45.7766 115.466 45.8873 115.883 46.1086C115.974 46.1086 116.02 45.9915 116.02 45.7571V43.6477C116.02 43.205 115.98 42.7883 115.902 42.3977C115.837 42.1894 115.505 42.0852 114.906 42.0852H114.73C114.652 42.0852 114.613 42.0136 114.613 41.8704C114.613 41.662 114.652 41.5579 114.73 41.5579C115.121 41.5188 115.479 41.4667 115.805 41.4016C116.143 41.3365 116.404 41.2714 116.586 41.2063C116.781 41.1412 116.944 41.0826 117.074 41.0305C117.204 40.9654 117.302 40.9133 117.367 40.8743L117.445 40.8157H117.484C117.536 40.8157 117.589 40.8547 117.641 40.9329C117.693 40.998 117.725 41.0631 117.738 41.1282C117.595 41.5448 117.523 42.1112 117.523 42.8274V51.6165C117.523 52.2415 117.562 52.7362 117.641 53.1008C117.667 53.192 117.738 53.2636 117.855 53.3157C117.973 53.3678 118.09 53.4003 118.207 53.4133C118.337 53.4264 118.461 53.4329 118.578 53.4329L118.754 53.4524C118.793 53.4654 118.812 53.5435 118.812 53.6868C118.812 53.8821 118.773 53.9797 118.695 53.9797C118.5 53.9928 118.279 54.0188 118.031 54.0579C117.797 54.0969 117.569 54.1425 117.348 54.1946C117.139 54.2336 116.944 54.2792 116.762 54.3313C116.579 54.3704 116.43 54.4094 116.312 54.4485L116.137 54.4875C116.059 54.4875 116.02 54.3769 116.02 54.1555V53.9211C116.02 53.843 115.993 53.817 115.941 53.843C115.212 54.2467 114.522 54.4485 113.871 54.4485C112.79 54.4485 111.885 54.0644 111.156 53.2961C110.427 52.5279 110.062 51.6099 110.062 50.5422C110.062 49.2792 110.505 48.1724 111.391 47.2219C112.289 46.2584 113.298 45.7766 114.418 45.7766ZM123.422 46.5774C122.745 46.5774 122.224 46.8704 121.859 47.4563C121.508 48.0292 121.332 48.5045 121.332 48.8821C121.332 48.9732 121.371 49.0188 121.449 49.0188H125.258C125.323 49.0188 125.355 48.9537 125.355 48.8235C125.355 48.4068 125.18 47.9316 124.828 47.3977C124.477 46.8508 124.008 46.5774 123.422 46.5774ZM123.617 45.8547C124.216 45.8547 124.743 45.9719 125.199 46.2063C125.655 46.4277 126 46.7206 126.234 47.0852C126.482 47.4368 126.658 47.8014 126.762 48.179C126.879 48.5435 126.938 48.9081 126.938 49.2727C126.938 49.5331 126.898 49.6959 126.82 49.761C126.742 49.8131 126.592 49.8391 126.371 49.8391H121.449C121.345 49.8391 121.293 49.8717 121.293 49.9368C121.293 50.7571 121.54 51.5123 122.035 52.2024C122.53 52.8925 123.246 53.2375 124.184 53.2375C124.457 53.2375 124.717 53.2115 124.965 53.1594C125.212 53.1073 125.421 53.0487 125.59 52.9836C125.772 52.9055 125.922 52.8339 126.039 52.7688C126.169 52.6907 126.28 52.6191 126.371 52.554L126.508 52.4563C126.586 52.4563 126.625 52.5409 126.625 52.7102C126.625 52.8144 126.586 52.9316 126.508 53.0618C126.247 53.4264 125.863 53.7584 125.355 54.0579C124.848 54.3443 124.294 54.4875 123.695 54.4875C122.615 54.4875 121.684 54.0839 120.902 53.2766C120.134 52.4563 119.75 51.4602 119.75 50.2883C119.75 48.9211 120.115 47.8404 120.844 47.0461C121.586 46.2519 122.51 45.8547 123.617 45.8547ZM128.734 46.9094C128.734 46.7402 128.773 46.5448 128.852 46.3235C128.943 46.0891 129.008 45.9719 129.047 45.9719C129.06 45.9719 129.092 45.9849 129.145 46.011L136.371 49.6633C136.592 49.7805 136.703 49.9368 136.703 50.1321C136.703 50.5357 136.592 50.7961 136.371 50.9133L129.047 54.6243C128.995 54.6503 128.962 54.6633 128.949 54.6633C128.897 54.6633 128.826 54.5266 128.734 54.2532C128.656 53.9667 128.617 53.7779 128.617 53.6868L128.676 53.5696L135.141 50.2883L128.793 47.0657C128.754 47.0527 128.734 47.0006 128.734 46.9094Z" fill="#FFC864"/>
</svg>
