<svg id="Layer_1" data-name="Layer 1" xmlns="http://www.w3.org/2000/svg" xmlns:xlink="http://www.w3.org/1999/xlink" viewBox="0 0 400 300"><defs><clipPath id="clip-path"><circle cx="-152.26" cy="-45.49" r="97.58" fill="none"/></clipPath></defs><title>#131_world connection_twocolour</title><ellipse cx="201" cy="266.56" rx="103.82" ry="11.07" fill="#e6e6e6" opacity="0.45"/><circle cx="332.14" cy="92.13" r="17.06" fill="#ffd200"/><circle cx="332.14" cy="92.13" r="32.52" fill="#ffd200" opacity="0.15"/><path d="M144,131.22a10.13,10.13,0,0,0-10.13-10.13,9.69,9.69,0,0,0-1.63.14,13.64,13.64,0,0,0-12-7.19l-.5,0a15.89,15.89,0,0,0,.5-3.92,16.21,16.21,0,1,0-32.41,0,15.89,15.89,0,0,0,.5,3.92l-.5,0a13.66,13.66,0,1,0,0,27.31h47.39v-.1A10.12,10.12,0,0,0,144,131.22Z" fill="#e6e6e6" opacity="0.37"/><circle cx="197.3" cy="152.27" r="88.63" fill="#efefef"/><path d="M131.8,94.25s.78,12.79,9.55,9,20.6-8,19.32,6.07,5.75,16,15.66,12.47,5.11-4.48,5.75-17.26-16-13.42-13.42-22.37,22.53,1.72,15.58-17.52C184.24,64.59,149.27,67.48,131.8,94.25Z" fill="#cecece"/><path d="M205.58,127.56a13,13,0,0,0-5.39,1.18c-3.5,1.67-7.72,5.7-5.32,15.32,3.83,15.39,10.22,3.95,18.53,5.83s27.17,3.81,17.9,20.74,1.28,20.46,10.23,16.3,2.87-20.77,12.14-13.42-1.38,30.52,21.2,21.65c0,0,26-39.35,0-85.79,0,0-11.78-22.54-21.05-14.55s3.49,8.44,4.77,17.61-4.13,20.37-11.52,10.07-4.9-9.39-16.73-10.67c-9.44-1-16,.11-16.19,8.13a7.75,7.75,0,0,1-7.63,7.59Z" fill="#cecece"/><path d="M203.24,77.63s-9.2-2.55-9.08,8.63,6.2,10.54,12.91,7.67,1,6.39,13.75,3.84,13.74-5.56,10.86-10S224,66.45,203.24,77.63Z" fill="#cecece"/><path d="M108.67,152.27s10.81-17.68,22.62-5.73-11.43,10,.51,21.54S152,152.85,158.75,163s19.88,17.08,4.45,26-6.2,21.37.91,18.74,19.73,15.36,0,26.49C164.11,234.28,106.2,213.15,108.67,152.27Z" fill="#cecece"/><path d="M201.33,172.55s-12.14,0-12.18,11.51,22.68.62,17.4,13.09,7.13,15.83,14,10.64-5-20.83-3.84-31.87S202.68,167.44,201.33,172.55Z" fill="#cecece"/><path d="M197.3,240.9s-7.84-8.27,9.25-10.18,17.46-10.87,23-14.71,17.35,9.71,17.35,9.71S225,245.33,197.3,240.9Z" fill="#cecece"/><path d="M141.34,195h13v34.74s-10-5.94-13-8.78S141.34,195,141.34,195Z" opacity="0.08"/><ellipse cx="227.97" cy="122.51" rx="10.77" ry="3.33" opacity="0.08"/><path d="M250,79.85a22,22,0,1,0-40.84,11.46h0L228,122.14l18.72-30.68h0A21.88,21.88,0,0,0,250,79.85ZM228,91.54a10.77,10.77,0,1,1,10.77-10.77A10.77,10.77,0,0,1,228,91.54Z" fill="#855298"/><ellipse cx="154.3" cy="89.99" rx="9.29" ry="2.74" opacity="0.08"/><path d="M170.7,58.39a16.4,16.4,0,1,0-30.41,8.53h0l14,23L168.24,67h0A16.32,16.32,0,0,0,170.7,58.39Zm-16.4,8.7a8,8,0,1,1,8-8A8,8,0,0,1,154.3,67.09Z" fill="#855298"/><ellipse cx="203.76" cy="182.46" rx="6.76" ry="1.85" opacity="0.08"/><path d="M263.23,174.58s-16,3.34-11.48,19c0,0-15.14,8.94-10,20.54,0,0,2.15,6.92,12.81,5.77,0,0,4.51-4,5.28-4.84S263.23,174.58,263.23,174.58Z" opacity="0.08"/><path d="M215.63,159.68a11.87,11.87,0,1,0-22,6.18h0l10.14,16.6,10.08-16.52h0A11.82,11.82,0,0,0,215.63,159.68ZM203.76,166a5.8,5.8,0,1,1,5.8-5.8A5.8,5.8,0,0,1,203.76,166Z" fill="#855298"/><path d="M307.57,205.88a9.16,9.16,0,0,0-9.17-9.17,8.93,8.93,0,0,0-1.47.13A12.35,12.35,0,0,0,286,190.33l-.45,0a14.9,14.9,0,0,0,.45-3.56,14.68,14.68,0,0,0-29.35,0,14.9,14.9,0,0,0,.45,3.56l-.45,0a12.36,12.36,0,1,0,0,24.72H299.6V215A9.18,9.18,0,0,0,307.57,205.88Z" fill="#f7f7f7"/><rect x="60.75" y="186.02" width="80.59" height="46.13" fill="#24285b"/><path d="M92.68,203.08a9.69,9.69,0,1,0-18,5h0L83,221.67l8.23-13.49h0A9.64,9.64,0,0,0,92.68,203.08ZM83,208.22a4.74,4.74,0,1,1,4.74-4.74A4.74,4.74,0,0,1,83,208.22Z" fill="#ffd200"/><rect x="101.33" y="198.75" width="29.29" height="6.64" fill="#fff"/><rect x="101.33" y="210.8" width="29.29" height="6.64" fill="#fff" opacity="0.19"/></svg>