<svg id="Layer_1" data-name="Layer 1" xmlns="http://www.w3.org/2000/svg" viewBox="0 0 400 300"><ellipse cx="197.41" cy="170.41" rx="135.96" ry="98.66" fill="#e6e6e6" opacity="0.24"/><polygon points="282.61 76.59 269.55 85.4 198.97 49.65 134.87 176.22 113.37 190.72 118.42 208.7 207.1 253.62 287.65 94.57 282.61 76.59" fill="#e6e6e6"/><rect x="148.28" y="44.51" width="99.41" height="178.28" transform="translate(81.75 -75.04) rotate(26.86)" fill="#c9c9c9"/><rect x="159.29" y="65.34" width="82.28" height="125.47" transform="translate(79.5 -76.75) rotate(26.86)" fill="#fff"/><circle cx="165.4" cy="198.66" r="9.73" fill="#fff" opacity="0.56"/><rect x="225.19" y="62.62" width="27.87" height="4.06" transform="translate(55.02 -101.07) rotate(26.86)" opacity="0.12"/><circle cx="217.49" cy="54.19" r="4.54" fill="#fff"/><polygon points="168.15 100.76 262.17 97.23 231.5 158.23 140.08 156.18 168.15 100.76" opacity="0.05"/><rect x="237.36" y="87.13" width="44.94" height="34.4" transform="translate(73.02 -104.23) rotate(26.27)" fill="#24285b"/><rect x="249.38" y="96.92" width="20.9" height="14.81" transform="translate(73.02 -104.23) rotate(26.27)" fill="#ffd200"/><polygon points="258.72 99.12 255.33 105.99 264.56 106.13 258.72 99.12" fill="#fff"/><rect x="126.34" y="104.48" width="50.12" height="38.36" transform="translate(70.37 -54.24) rotate(26.27)" fill="#24285b"/><path d="M149.16,119.93s6.42,3.42,10.47-1.18a2,2,0,0,1,3.43.81,4.34,4.34,0,0,1-1,3.54c-3,4.2-.94,2.94,1,5.67s-6.58,8.47-10.57,6.09-1.87-6.24-7.22-7.12Z" fill="#fff"/><rect x="138.86" y="116.33" width="10.81" height="11.68" transform="translate(68.97 -51.24) rotate(26.27)" fill="#ffd200"/><rect x="155.3" y="46.89" width="47.27" height="36.19" transform="translate(47.25 -72.49) rotate(26.27)" fill="#24285b"/><rect x="169.04" y="57.65" width="19.79" height="14.67" transform="translate(47.25 -72.49) rotate(26.27)" fill="#fff"/><polygon points="173.31 54.03 177.47 67.97 191.06 62.78 173.31 54.03" fill="#7f10b2"/><rect x="206.23" y="153.92" width="48.58" height="37.18" transform="translate(100.17 -84.21) rotate(26.27)" fill="#24285b"/><path d="M238.18,167.06a4.73,4.73,0,0,0-3.08-.38,6.5,6.5,0,0,0-2.45,1.09,6.73,6.73,0,0,0-.63-2.61,4.68,4.68,0,0,0-2.18-2.21,5.39,5.39,0,0,0-7.26,2.79c-1.56,3.16-.09,6.57,2.13,11.73.38.88.81,1.88,1.25,2.93a.59.59,0,0,0,.29.31.61.61,0,0,0,.44,0c1.1-.3,2.15-.56,3.07-.79,5.45-1.38,9.06-2.29,10.61-5.45A5.38,5.38,0,0,0,238.18,167.06Z" fill="#7f10b2"/></svg>