<svg width="146" height="54" viewBox="0 0 146 54" fill="none" xmlns="http://www.w3.org/2000/svg">
<path d="M18.72 50.52C20.288 50.52 21.28 50.232 21.696 49.656C22.144 49.08 22.368 48.104 22.368 46.728V37.416H19.296V36.36H33.12V37.416H31.248V50.952H30.528C29.952 50.152 29.136 49.752 28.08 49.752C27.632 49.752 26.288 50.04 24.048 50.616C21.84 51.192 19.952 51.48 18.384 51.48C13.168 51.48 9.12 50.072 6.24 47.256C3.392 44.44 1.968 40.216 1.968 34.584C1.968 28.92 3.456 24.552 6.432 21.48C9.44 18.408 13.472 16.872 18.528 16.872C20.48 16.872 22.432 17.128 24.384 17.64C26.368 18.12 27.52 18.36 27.84 18.36C28.16 18.36 28.4 18.296 28.56 18.168C28.72 18.008 28.896 17.752 29.088 17.4H29.616L30 27.816H29.136C27.568 24.712 25.984 22.28 24.384 20.52C22.816 18.728 21.056 17.832 19.104 17.832C14.208 17.832 11.76 22.616 11.76 32.184V35.976C11.76 40.776 12.352 44.408 13.536 46.872C14.752 49.304 16.48 50.52 18.72 50.52Z" fill="white"/>
<path d="M37.016 38.9C36.776 38.804 36.608 38.684 36.512 38.54C36.44 38.396 36.404 38.204 36.404 37.964V36.38C36.404 36.14 36.44 35.948 36.512 35.804C36.608 35.66 36.776 35.54 37.016 35.444L52.928 28.208C53.072 28.16 53.18 28.136 53.252 28.136C53.54 28.136 53.684 28.304 53.684 28.64V31.484C53.684 31.748 53.636 31.94 53.54 32.06C53.468 32.18 53.312 32.288 53.072 32.384L42.02 37.136L53.072 41.888C53.312 41.984 53.468 42.092 53.54 42.212C53.636 42.332 53.684 42.524 53.684 42.788V45.704C53.684 46.04 53.54 46.208 53.252 46.208C53.108 46.208 53 46.184 52.928 46.136L37.016 38.9Z" fill="white"/>
<path d="M64 18.6207L64 50.2759" stroke="white"/>
<path d="M83.36 35.76C84.144 35.76 84.64 35.616 84.848 35.328C85.072 35.04 85.184 34.552 85.184 33.864V29.208H83.648V28.68H90.56V29.208H89.624V35.976H89.264C88.976 35.576 88.568 35.376 88.04 35.376C87.816 35.376 87.144 35.52 86.024 35.808C84.92 36.096 83.976 36.24 83.192 36.24C80.584 36.24 78.56 35.536 77.12 34.128C75.696 32.72 74.984 30.608 74.984 27.792C74.984 24.96 75.728 22.776 77.216 21.24C78.72 19.704 80.736 18.936 83.264 18.936C84.24 18.936 85.216 19.064 86.192 19.32C87.184 19.56 87.76 19.68 87.92 19.68C88.08 19.68 88.2 19.648 88.28 19.584C88.36 19.504 88.448 19.376 88.544 19.2H88.808L89 24.408H88.568C87.784 22.856 86.992 21.64 86.192 20.76C85.408 19.864 84.528 19.416 83.552 19.416C81.104 19.416 79.88 21.808 79.88 26.592V28.488C79.88 30.888 80.176 32.704 80.768 33.936C81.376 35.152 82.24 35.76 83.36 35.76ZM91.9438 19.2H99.2638V19.656H97.9438V35.544H99.2638V36H91.9438V35.544H93.2638V19.656H91.9438V19.2ZM107.747 27.504H106.475V35.544H108.035V36H100.235V35.544H101.795V19.656H100.235V19.2H107.483C109.563 19.2 111.035 19.312 111.899 19.536C112.779 19.744 113.395 20 113.747 20.304C114.515 20.928 114.899 21.92 114.899 23.28C114.899 24.64 114.563 25.616 113.891 26.208C113.219 26.784 112.195 27.128 110.819 27.24V27.312C112.115 27.488 113.019 27.872 113.531 28.464C114.043 29.056 114.299 30.048 114.299 31.44V32.712C114.299 33.544 114.339 34.104 114.419 34.392C114.515 34.68 114.707 34.824 114.995 34.824C115.283 34.824 115.507 34.696 115.667 34.44C115.843 34.168 116.003 33.608 116.147 32.76L116.555 32.808C116.379 34.168 116.067 35.08 115.619 35.544C115.187 36.008 114.315 36.24 113.003 36.24C111.691 36.24 110.755 35.936 110.195 35.328C109.651 34.704 109.379 33.544 109.379 31.848V30.096C109.379 29.2 109.259 28.544 109.019 28.128C108.795 27.712 108.371 27.504 107.747 27.504ZM106.475 19.656V27.048H107.243C108.155 27.048 108.827 26.768 109.259 26.208C109.707 25.648 109.931 24.736 109.931 23.472V22.776C109.931 21.512 109.715 20.68 109.283 20.28C108.867 19.864 108.195 19.656 107.267 19.656H106.475ZM117.559 19.2H126.199V19.728H123.655V35.472H124.519C125.879 35.472 126.959 35.056 127.759 34.224C128.575 33.392 129.399 32.112 130.231 30.384H130.735L130.279 36H117.559V35.472H118.975V19.728H117.559V19.2ZM139.152 35.736C139.952 35.736 140.656 35.52 141.264 35.088C141.888 34.656 142.2 34.008 142.2 33.144C142.2 32.264 141.864 31.592 141.192 31.128C140.536 30.664 139.592 30.264 138.36 29.928C137.144 29.576 136.256 29.272 135.696 29.016C135.152 28.76 134.632 28.424 134.136 28.008C133.144 27.176 132.648 25.888 132.648 24.144C132.648 22.72 133.152 21.496 134.16 20.472C135.184 19.448 136.576 18.936 138.336 18.936C139.184 18.936 140.064 19.064 140.976 19.32C141.904 19.56 142.48 19.68 142.704 19.68C142.928 19.68 143.128 19.52 143.304 19.2H143.568L143.736 24.048H143.352C142.584 22.656 141.776 21.544 140.928 20.712C140.096 19.864 139.184 19.44 138.192 19.44C137.216 19.44 136.456 19.672 135.912 20.136C135.368 20.584 135.096 21.192 135.096 21.96C135.096 22.712 135.416 23.296 136.056 23.712C136.712 24.112 137.512 24.44 138.456 24.696C139.4 24.952 140.016 25.128 140.304 25.224C140.608 25.32 140.976 25.456 141.408 25.632C141.856 25.792 142.216 25.968 142.488 26.16C142.776 26.336 143.072 26.568 143.376 26.856C143.696 27.128 143.944 27.432 144.12 27.768C144.552 28.536 144.768 29.448 144.768 30.504C144.768 32.232 144.224 33.624 143.136 34.68C142.064 35.72 140.648 36.24 138.888 36.24C137.976 36.24 136.928 36.12 135.744 35.88C134.576 35.64 133.928 35.52 133.8 35.52C133.576 35.52 133.36 35.76 133.152 36.24H132.816L132.576 30.528H132.984C133.688 31.92 134.584 33.136 135.672 34.176C136.776 35.216 137.936 35.736 139.152 35.736Z" fill="white"/>
<path d="M90.2773 51.3854C90.2773 51.4765 90.2383 51.6653 90.1602 51.9518C90.082 52.2252 90.0169 52.3619 89.9648 52.3619C89.9518 52.3619 89.9193 52.3489 89.8672 52.3229L82.543 48.6119C82.3086 48.4817 82.1914 48.2213 82.1914 47.8307C82.1914 47.6354 82.3086 47.4791 82.543 47.3619L89.75 43.7096C89.8021 43.6835 89.8346 43.6705 89.8477 43.6705C89.9518 43.6705 90.0625 43.9765 90.1797 44.5885L90.1211 44.7643L83.7539 47.9869L90.2188 51.2682C90.2578 51.2812 90.2773 51.3203 90.2773 51.3854ZM128.734 44.608C128.734 44.4387 128.773 44.2434 128.852 44.0221C128.943 43.7877 129.008 43.6705 129.047 43.6705C129.06 43.6705 129.092 43.6835 129.145 43.7096L136.371 47.3619C136.592 47.4791 136.703 47.6354 136.703 47.8307C136.703 48.2343 136.592 48.4947 136.371 48.6119L129.047 52.3229C128.995 52.3489 128.962 52.3619 128.949 52.3619C128.897 52.3619 128.826 52.2252 128.734 51.9518C128.656 51.6653 128.617 51.4765 128.617 51.3854L128.676 51.2682L135.141 47.9869L128.793 44.7643C128.754 44.7512 128.734 44.6992 128.734 44.608Z" fill="#E9DEFF"/>
<path d="M95.9609 43.5533C97.3932 43.5533 98.3828 43.8854 98.9297 44.5494C98.9297 45.4218 98.6888 45.858 98.207 45.858C97.9857 45.858 97.8164 45.8124 97.6992 45.7213C97.582 45.6171 97.4323 45.4348 97.25 45.1744C96.8464 44.5755 96.3646 44.276 95.8047 44.276C95.2708 44.276 94.7826 44.5299 94.3398 45.0377C93.9102 45.5455 93.6953 46.3007 93.6953 47.3033C93.6953 48.345 93.9492 49.2109 94.457 49.901C94.9779 50.5911 95.694 50.9361 96.6055 50.9361C96.8789 50.9361 97.1393 50.9101 97.3867 50.858C97.6341 50.8059 97.8424 50.7473 98.0117 50.6822C98.194 50.6041 98.3438 50.5325 98.4609 50.4674C98.5911 50.3893 98.7018 50.3177 98.793 50.2525L98.9297 50.1549C99.0078 50.1549 99.0469 50.2395 99.0469 50.4088C99.0469 50.513 99.0078 50.6302 98.9297 50.7604C98.6693 51.1249 98.2852 51.457 97.7773 51.7565C97.2695 52.0429 96.7161 52.1861 96.1172 52.1861C95.0365 52.1861 94.1055 51.7825 93.3242 50.9752C92.556 50.1549 92.1719 49.1588 92.1719 47.9869C92.1719 46.789 92.4974 45.7539 93.1484 44.8815C93.7995 43.996 94.737 43.5533 95.9609 43.5533ZM104.105 44.2955C103.415 44.2955 102.849 44.6145 102.406 45.2525C101.977 45.8775 101.762 46.6458 101.762 47.5572C101.762 48.6249 102.035 49.5429 102.582 50.3111C103.142 51.0664 103.793 51.444 104.535 51.444C105.225 51.444 105.792 51.1184 106.234 50.4674C106.677 49.8164 106.898 49.0351 106.898 48.1236C106.898 47.069 106.618 46.1705 106.059 45.4283C105.499 44.6731 104.848 44.2955 104.105 44.2955ZM104.32 43.5338C105.492 43.5338 106.495 43.957 107.328 44.8033C108.161 45.6497 108.578 46.6653 108.578 47.8502C108.578 49.0481 108.168 50.0768 107.348 50.9361C106.54 51.7825 105.544 52.2057 104.359 52.2057C103.174 52.2057 102.165 51.7825 101.332 50.9361C100.499 50.0768 100.082 49.0481 100.082 47.8502C100.082 46.6393 100.486 45.6171 101.293 44.7838C102.1 43.9505 103.109 43.5338 104.32 43.5338ZM114.164 44.2955C113.409 44.2955 112.816 44.6341 112.387 45.3111C111.957 45.9882 111.742 46.776 111.742 47.6744C111.742 48.6249 111.996 49.4518 112.504 50.1549C113.012 50.845 113.715 51.19 114.613 51.19C115.056 51.19 115.401 51.0924 115.648 50.8971C115.896 50.6887 116.02 50.4153 116.02 50.0768V45.4283C116.02 45.1549 115.87 44.901 115.57 44.6666C115.284 44.4192 114.815 44.2955 114.164 44.2955ZM114.418 43.4752C114.978 43.4752 115.466 43.5859 115.883 43.8072C115.974 43.8072 116.02 43.69 116.02 43.4557V41.3463C116.02 40.9036 115.98 40.4869 115.902 40.0963C115.837 39.888 115.505 39.7838 114.906 39.7838H114.73C114.652 39.7838 114.613 39.7122 114.613 39.569C114.613 39.3606 114.652 39.2565 114.73 39.2565C115.121 39.2174 115.479 39.1653 115.805 39.1002C116.143 39.0351 116.404 38.97 116.586 38.9049C116.781 38.8398 116.944 38.7812 117.074 38.7291C117.204 38.664 117.302 38.6119 117.367 38.5729L117.445 38.5143H117.484C117.536 38.5143 117.589 38.5533 117.641 38.6315C117.693 38.6966 117.725 38.7617 117.738 38.8268C117.595 39.2434 117.523 39.8098 117.523 40.526V49.315C117.523 49.94 117.562 50.4348 117.641 50.7994C117.667 50.8906 117.738 50.9622 117.855 51.0143C117.973 51.0664 118.09 51.0989 118.207 51.1119C118.337 51.1249 118.461 51.1315 118.578 51.1315L118.754 51.151C118.793 51.164 118.812 51.2421 118.812 51.3854C118.812 51.5807 118.773 51.6783 118.695 51.6783C118.5 51.6914 118.279 51.7174 118.031 51.7565C117.797 51.7955 117.569 51.8411 117.348 51.8932C117.139 51.9322 116.944 51.9778 116.762 52.0299C116.579 52.069 116.43 52.108 116.312 52.1471L116.137 52.1861C116.059 52.1861 116.02 52.0755 116.02 51.8541V51.6197C116.02 51.5416 115.993 51.5156 115.941 51.5416C115.212 51.9453 114.522 52.1471 113.871 52.1471C112.79 52.1471 111.885 51.763 111.156 50.9947C110.427 50.2265 110.062 49.3085 110.062 48.2408C110.062 46.9778 110.505 45.871 111.391 44.9205C112.289 43.957 113.298 43.4752 114.418 43.4752ZM123.422 44.276C122.745 44.276 122.224 44.569 121.859 45.1549C121.508 45.7278 121.332 46.2031 121.332 46.5807C121.332 46.6718 121.371 46.7174 121.449 46.7174H125.258C125.323 46.7174 125.355 46.6523 125.355 46.5221C125.355 46.1054 125.18 45.6302 124.828 45.0963C124.477 44.5494 124.008 44.276 123.422 44.276ZM123.617 43.5533C124.216 43.5533 124.743 43.6705 125.199 43.9049C125.655 44.1262 126 44.4192 126.234 44.7838C126.482 45.1354 126.658 45.4999 126.762 45.8775C126.879 46.2421 126.938 46.6067 126.938 46.9713C126.938 47.2317 126.898 47.3945 126.82 47.4596C126.742 47.5117 126.592 47.5377 126.371 47.5377H121.449C121.345 47.5377 121.293 47.5703 121.293 47.6354C121.293 48.4557 121.54 49.2109 122.035 49.901C122.53 50.5911 123.246 50.9361 124.184 50.9361C124.457 50.9361 124.717 50.9101 124.965 50.858C125.212 50.8059 125.421 50.7473 125.59 50.6822C125.772 50.6041 125.922 50.5325 126.039 50.4674C126.169 50.3893 126.28 50.3177 126.371 50.2525L126.508 50.1549C126.586 50.1549 126.625 50.2395 126.625 50.4088C126.625 50.513 126.586 50.6302 126.508 50.7604C126.247 51.1249 125.863 51.457 125.355 51.7565C124.848 52.0429 124.294 52.1861 123.695 52.1861C122.615 52.1861 121.684 51.7825 120.902 50.9752C120.134 50.1549 119.75 49.1588 119.75 47.9869C119.75 46.6197 120.115 45.539 120.844 44.7447C121.586 43.9505 122.51 43.5533 123.617 43.5533Z" fill="white"/>
</svg>
