<svg id="Layer_1" data-name="Layer 1" xmlns="http://www.w3.org/2000/svg" viewBox="0 0 400 300"><ellipse cx="191.45" cy="268.31" rx="103.82" ry="11.07" fill="#e6e6e6" opacity="0.45"/><path d="M207.61,65.49S173.88,64,164.87,82.75s-5.56,34.67-43.07,31.74c-31.92-2.5-40.71,17.92-42.61,24.07a16.08,16.08,0,0,0-.46,1.71s36.12-14.05,56,12.89S182,185.61,210.48,175s39.59-68.08,39.59-68.08Z" fill="#ffd200"/><path d="M78.73,140.27s21.49-24.78,45.88-15.83,36.92-6.64,50.4-30.59,53.68-13.4,53.68-13.4l-50.77,99.6s-24.21,0-49.23-33.51C128.69,146.54,112.57,129.56,78.73,140.27Z" opacity="0.04"/><path d="M190.88,200.29s1.46,16.54,6.25,16.85,2.62-16,2.62-16Z" fill="#855298"/><path d="M190.88,200.29s1.46,16.54,6.25,16.85,2.62-16,2.62-16Z" opacity="0.14"/><path d="M227.4,165.94s12.16,73.37-38.13,85.41l-2.74-3.7s28.58-23.46,21.08-78.73Z" fill="#f4a28c"/><path d="M242.36,74.61s50,21.79,42.29,106.46l-9.27-1.87s-2.46-38.6-31.88-65.3S242.36,74.61,242.36,74.61Z" fill="#f4a28c"/><path d="M219.05,77.6s-18-15.82-32.51.16A311.87,311.87,0,0,0,161,110.24l-11.45-29.8-6.09,2.08s-2.84,34.85,10.89,47.17S219.05,77.6,219.05,77.6Z" fill="#f4a28c"/><path d="M246.48,62s5.12,14.39-4.36,15.93-4.45-21.58-4.45-21.58Z" fill="#24285b"/><path d="M246,52.19a32.08,32.08,0,0,1,.92,8.57,2.6,2.6,0,0,1-2.85,2.36A5.77,5.77,0,0,1,239,59.54l-2.24-4.24A4.65,4.65,0,0,1,238,50.07C240.53,47.53,245.4,49.09,246,52.19Z" fill="#f4a28c"/><polygon points="237.67 56.36 233.15 72.76 242.36 74.61 241.96 62.25 237.67 56.36" fill="#f4a28c"/><path d="M246.63,55.41l1.74,1.75a.82.82,0,0,1-.31,1.36l-1.9.68Z" fill="#f4a28c"/><path d="M242,62.6a6.35,6.35,0,0,1-2.72-2s-1.32,3.48,2.83,5.57Z" fill="#ce8172" opacity="0.31"/><path d="M240.72,56.76s-.35-2-1.81-1.58-1,3.23,1.09,3.18Z" fill="#f4a28c"/><path d="M239.85,54.29,250.07,54s-1-10.95-10-9.67Z" fill="#24285b"/><path d="M233.15,72.76l9.21,1.85s40.6,33.22,18.23,55.44c-22,21.86-22.17,26.82-22.17,26.82L192.77,143.1S181.3,50.69,233.15,72.76Z" fill="#855298"/><path d="M221.31,84.47s19.7,9.34,34.46-.41h0a42.93,42.93,0,0,0-11.69-9.47l-1.75-1-19.49-4Z" fill="#ffd200"/><path d="M236.13,72.36S230.54,92.82,210.29,100c0,0-14.9,18.93-6.13,46.56l-11.39-3.44s-.88-8.69-1-13.93c0,0-.6-17.37,1.79-29.88,0,0-12.5-6.5-14.38-13.11,0,0,6.16-7,7.88-9S236.13,72.36,236.13,72.36Z" opacity="0.08"/><path d="M240.08,44.3S230.22,43.5,228,50s-2.2,16.38-15.65,9.9-30.61,5.62-26,15.85,16.14,17.83,28.3,11.89,23-8.49,24.61-27S240.08,44.3,240.08,44.3Z" fill="#24285b"/><path d="M268.82,163.12l16.92,3.41s-.41,21.45-3.69,27.39c0,0-4.84,11.53-10.87,7.18S275.05,189,275.05,189Z" fill="#855298"/><path d="M161.88,110.07l-18.68.64s-2.74-24,.05-31.16c0,0,3.7-13.6,11.08-9.65S151.8,84,151.8,84Z" fill="#855298"/><circle cx="232.45" cy="106.05" r="12.2" fill="#fff" opacity="0.34"/><path d="M203.54,167.82s17.24,32.11,3.18,40.83-26.25-29-21.89-37.59S203.54,167.82,203.54,167.82Z" fill="#f4a28c"/><path d="M203.54,167.82s17.24,32.11,3.18,40.83-26.25-29-21.89-37.59S203.54,167.82,203.54,167.82Z" opacity="0.14"/><polygon points="192.77 143.1 238.42 156.87 236.13 165.53 189.26 150.79 192.77 143.1" fill="#ffd200"/><path d="M189.26,150.79h0a42.42,42.42,0,0,0-11,25l-.74,8.55s36.87,19.19,60.87,13.94c0,0-3.27-20.37-2.29-32.72Z" fill="#24285b"/><path d="M199.47,229.83l12.38,10.62s-13.59,9.32-24.14,13.66a17.13,17.13,0,0,0-7.16,5.45l-2.6,4.58a.91.91,0,0,1-1.67-.68l2.82-10.71a10.9,10.9,0,0,1,5.17-6.77C187.73,244,193.26,239.65,199.47,229.83Z" fill="#855298"/><polygon points="192.77 143.1 204.16 146.54 204.16 155.48 189.26 150.79 192.77 143.1" opacity="0.08"/></svg>