<svg xmlns="http://www.w3.org/2000/svg" viewBox="0 0 500 500"><g id="freepik--Shadow--inject-99"><ellipse id="freepik--path--inject-99" cx="250" cy="416.24" rx="193.89" ry="11.32" style="fill:#f5f5f5"></ellipse></g><g id="freepik--Character--inject-99"><path d="M201.43,145.22c15.66.65,48.24,17.25,69.35,61.37s67.94,35.17,107.33,39.55c38.58,4.28,63.84,24.76,65.78,67.42C387,296.2,373.67,341.21,336.22,364.75c-52.09,32.75-129.69,3.37-129.69,3.37s40.52-23.24-16.05-77.37C145.85,248,194.94,202.83,178.56,178S201.43,145.22,201.43,145.22Z" style="fill:#FF725E"></path><path d="M201.43,145.22c15.66.65,48.24,17.25,69.35,61.37s67.94,35.17,107.33,39.55c38.58,4.28,63.84,24.76,65.78,67.42C387,296.2,373.67,341.21,336.22,364.75c-52.09,32.75-129.69,3.37-129.69,3.37s40.52-23.24-16.05-77.37C145.85,248,194.94,202.83,178.56,178S201.43,145.22,201.43,145.22Z" style="opacity:0.2"></path><path d="M378.38,243.65c-8-.89-16.43-1.24-24.57-1.57l0-1c8.16.33,16.59.68,24.65,1.58Zm-31.53-1.88c-1.9-.08-3.79-.18-5.66-.29l.06-1c1.87.11,3.75.21,5.65.3Z" style="fill:#FF725E"></path><path d="M201.43,145.22s36.78,20.67,49.95,55.22c21.82,57.24,43.68,91.36,98.39,82.09s81-10.25,94.12,31c-1.94-42.66-27.2-63.14-65.78-67.42-39.39-4.38-86.23,4.56-107.33-39.55s-53.69-60.72-69.35-61.37" style="fill:#FF725E;opacity:0.5"></path><path d="M219,88.28c1-1.46.56-6.09-2.72-9.37s-8.47-1.32-10.61.72c-.87-2.65-8.26-5.1-14-1.45S190,86.62,190,86.62s-1.7-3.75-5.77-1.15-4.51,13.82-.44,13.2c9-1.38,18.44,15.71,18.44,15.71-4.18,10.32,5.49,5.52,5.49,5.52s5.51,4,9.56,0c4.69-4.72,1.66-9.29,1.66-9.29s4.57,0,7.47-6.7C230.16,95.11,225,85,219,88.28Z" style="fill:#263238"></path><path d="M172.63,154.61c-.21.51-.35.84-.53,1.22s-.34.73-.51,1.09c-.35.71-.73,1.39-1.11,2.07-.76,1.36-1.56,2.68-2.42,4a67.52,67.52,0,0,1-5.67,7.27,64.58,64.58,0,0,1-6.66,6.36c-1.21.94-2.41,1.94-3.68,2.76l-1.87,1.28-.48.32-.59.37c-.41.24-.84.49-1.38.75a8.15,8.15,0,0,1-2.25.69,5.42,5.42,0,0,1-2.29-.15,5,5,0,0,1-2.68-1.9,5.28,5.28,0,0,1-.89-2.13,7.29,7.29,0,0,1-.11-1.36,9.23,9.23,0,0,1,.23-1.81,24.33,24.33,0,0,1,1.73-4.83,65.37,65.37,0,0,1,4.44-7.89,87.36,87.36,0,0,1,5.24-7.23c1-1.16,2-2.28,3.1-3.38a23.92,23.92,0,0,1,1.8-1.62,10.06,10.06,0,0,1,2.51-1.51l1.91,4.33a8.14,8.14,0,0,0-1,1,18.09,18.09,0,0,0-1.19,1.45c-.78,1-1.52,2.17-2.24,3.33a81.26,81.26,0,0,0-4,7.19,71.38,71.38,0,0,0-3.28,7.41,17,17,0,0,0-.94,3.31.77.77,0,0,0,0,.32.64.64,0,0,0,0-.29,2.81,2.81,0,0,0-.49-1.14,3.48,3.48,0,0,0-1.83-1.3,2.93,2.93,0,0,0-1.22-.11c-.38.06-.31.06-.23,0,.44-.23,1.77-1.31,2.77-2.08.55-.41,1.05-.84,1.54-1.28l1.5-1.3a74.15,74.15,0,0,0,5.49-5.72,61.94,61.94,0,0,0,4.71-6.37c.74-1.09,1.42-2.22,2.06-3.36.32-.56.63-1.14.92-1.7.15-.29.3-.57.43-.84l.35-.73Z" style="fill:#7f3e3b"></path><path d="M157.14,162.3l9,8.38s11.27-6.55,14-10.66,4.67-6.62,1.73-11.32-9.63-5.22-15.71-1S161.39,153.08,157.14,162.3Z" style="fill:#FF725E"></path><path d="M160.64,159.58c-1.48-.8-2.85-.38-4.17.8s-2.35,2.2-.6,3.53a81.29,81.29,0,0,1,7.91,8.12c.57.87,4.41-1.13,5-2.46S162.6,160.63,160.64,159.58Z" style="fill:#FF725E"></path><path d="M160.64,159.58c-1.48-.8-2.85-.38-4.17.8s-2.35,2.2-.6,3.53a81.29,81.29,0,0,1,7.91,8.12c.57.87,4.41-1.13,5-2.46S162.6,160.63,160.64,159.58Z" style="fill:#fff;opacity:0.30000000000000004"></path><path d="M160.71,158.06c.35,8.07,1.74,21.68,5.47,44.64h37.93c-.57-13.7-1.23-22.85,3.79-46.89a9.57,9.57,0,0,0-8.42-11.49c-1.51-.16-3.11-.28-4.76-.36a120.42,120.42,0,0,0-17.21,0c-1.86.17-3.79.4-5.62.66A13,13,0,0,0,160.71,158.06Z" style="fill:#FF725E"></path><path d="M174,158.86l-6.12,5.36c.32,6.09,11.3,7.25,17.23,7s12.71-2,16.19-5.34,3.48-6.44,2.37-11.73-6.35-6.92-10.66-3.56S180.39,156.92,174,158.86Z" style="opacity:0.2"></path><path d="M193,124.57c-1.09,5.54-2.17,15.69,1.7,19.39A120.7,120.7,0,0,0,181,148.91a5.88,5.88,0,0,1-3.52-4.95c6.17-1.48,6-6.06,4.94-10.37Z" style="fill:#7f3e3b"></path><path d="M181,148.91a6.49,6.49,0,0,0,3.6-3.81l1.05,2.81Z" style="fill:#263238"></path><path d="M184.63,145.1a9.82,9.82,0,0,1-.45,5c3.64-.07,13.15-2.49,13.59-6.26a22.42,22.42,0,0,1-3.49-2.33A31.76,31.76,0,0,1,184.63,145.1Z" style="fill:#fff"></path><path d="M181,148.91a4.13,4.13,0,0,1-.24-4l-3.8,2.23Z" style="fill:#263238"></path><path d="M180.79,144.89s-3.26,2.38-2.29,5.19c-3.64-.07-6-3-5.34-5.89.88-.89,4.63-.86,4.63-.86S177.51,144,180.79,144.89Z" style="fill:#fff"></path><path d="M188.71,128.25l-6.26,5.34a17.41,17.41,0,0,1,.53,3c2.36-.34,5.61-2.93,5.86-5.4A8.42,8.42,0,0,0,188.71,128.25Z" style="opacity:0.2"></path><path d="M175.57,102.71c-2.71,3.25-.25,12.2,3.89,6.83S177.93,99.88,175.57,102.71Z" style="fill:#263238"></path><path d="M198.86,114.41c-2.16,9-2.89,12.86-8.22,16.74-8,5.83-18.41,1.23-18.93-8.24-.47-8.52,3.14-21.82,12.53-23.9C193.48,97,201,105.39,198.86,114.41Z" style="fill:#7f3e3b"></path><path d="M179.43,99.31c-4.43,1.41-2.83,4.89,1.78,4.42,0,0,4,3.44,12.2,1.93-3.11,1.79-2.27,5.77.51,6.13-2.26,2.67,1.18,3.76-.47,6s3,1.08,4.06,0c2.3-.57-2.21,5.6-2.59,8.87,5.59-1.71,5.09-4.76,7.77-7.39s4.32-9.19,2.15-14.22a17.63,17.63,0,0,0-10.92-9.43C190.21,94.65,178.53,93.28,179.43,99.31Z" style="fill:#263238"></path><path d="M251.33,402.27c.16,4.44-.12,11.45-.12,11.45l-1.17,0a100.11,100.11,0,0,0-1.3-10.95Z" style="fill:#263238"></path><path d="M166.18,202.7S169.39,273,170,301.48c.64,29.62.92,98.78.92,98.78h7.48s11.92-57.48,8.39-98.78c5.34-31.71,8.94-98.78,8.94-98.78Z" style="fill:#7f3e3b"></path><path d="M166.18,202.7S169.39,273,170,301.48c.64,29.62.92,98.78.92,98.78h7.48s11.92-57.48,8.39-98.78c5.34-31.71,8.94-98.78,8.94-98.78Z" style="fill:#263238;opacity:0.8"></path><path d="M163.47,199.43l1.08,3.27s-3.05,22.47,1.63,43.81c6.83,3.76,27.92,4.26,27.92,4.26l-5.21-47.5.94-3.84Z" style="fill:#263238"></path><path d="M176.1,202.7s27,73.63,37.74,101.16c11.27,28.92,29.77,94.26,30.1,96.4h6.46S243,324.78,229.55,299.1c-4.07-32.16-25.44-96.4-25.44-96.4Z" style="fill:#7f3e3b"></path><path d="M176.1,202.7s27,73.63,37.74,101.16c11.27,28.92,29.77,94.26,30.1,96.4h6.46S243,324.78,229.55,299.1c-4.07-32.16-25.44-96.4-25.44-96.4Z" style="fill:#263238;opacity:0.8"></path><path d="M205.86,199.43l-.09,3.27s10.67,8.41,14.63,42.54c-4.7,1-26.93,8.67-26.93,8.67-13.17-16.89-19-33.76-19.9-50.64v-3.84Z" style="fill:#263238"></path><path d="M250.06,394.46c1.22,1.4,2.09,10.53.25,13.77s0,8-6.22,8-6.83-1.36-5.26-4.25,3.77-12.58,2.68-17.69C241,391.91,245.42,391.91,250.06,394.46Z" style="fill:#263238"></path><path d="M186.85,114.5c-.13.75-.63,1.28-1.12,1.19s-.77-.76-.64-1.5.63-1.27,1.12-1.18S187,113.76,186.85,114.5Z" style="fill:#263238"></path><path d="M177.7,113c-.13.74-.63,1.27-1.11,1.19s-.77-.76-.64-1.5.63-1.28,1.11-1.19S177.84,112.28,177.7,113Z" style="fill:#263238"></path><path d="M177.27,111.6l-1.69-.83S176.25,112.32,177.27,111.6Z" style="fill:#263238"></path><path d="M180,114.69a19.91,19.91,0,0,1-3.48,4.26,3.23,3.23,0,0,0,2.56,1Z" style="fill:#630f0f"></path><path d="M182.88,123.41a7.16,7.16,0,0,1-1.26-.11.22.22,0,0,1,.08-.44,6,6,0,0,0,5.2-1.45.22.22,0,0,1,.31,0,.23.23,0,0,1,0,.32A6.24,6.24,0,0,1,182.88,123.41Z" style="fill:#263238"></path><path d="M199.57,120.13a5.51,5.51,0,0,1-3.39,3c-1.91.53-2.85-1.56-2.31-3.68.49-1.91,2.06-4.49,4-4.07S200.45,118.26,199.57,120.13Z" style="fill:#7f3e3b"></path><path d="M189.59,109a.42.42,0,0,1-.34-.06,3.55,3.55,0,0,0-3.17-.4.44.44,0,1,1-.37-.8,4.36,4.36,0,0,1,4,.46.44.44,0,0,1,.14.61A.47.47,0,0,1,189.59,109Z" style="fill:#263238"></path><path d="M174.3,107.2a.42.42,0,0,1-.11-.31.44.44,0,0,1,.45-.43,4.36,4.36,0,0,1,3.58,1.86.44.44,0,1,1-.75.46,3.5,3.5,0,0,0-2.85-1.43A.46.46,0,0,1,174.3,107.2Z" style="fill:#263238"></path><path d="M186.41,113.08l-1.69-.82S185.39,113.81,186.41,113.08Z" style="fill:#263238"></path><path d="M189.07,163.1c-1.78.07-3.35.07-5,0s-3.27-.09-4.91-.18c-3.27-.19-6.54-.54-9.81-1a87.51,87.51,0,0,1-9.78-1.92,61,61,0,0,1-9.67-3.3c-.39-.17-.79-.37-1.18-.55l-.59-.28c-.19-.1-.49-.26-.71-.4a6.57,6.57,0,0,1-.66-.48,7.51,7.51,0,0,1-1.74-2.1,10.76,10.76,0,0,1-.81-1.88,19.73,19.73,0,0,1-.71-5.94A60.84,60.84,0,0,1,144.6,135a136.74,136.74,0,0,1,5-18.73l4.57,1.2c-.48,3.06-1,6.18-1.36,9.27s-.8,6.18-1,9.24a62.21,62.21,0,0,0-.23,8.88,12.17,12.17,0,0,0,.61,3.43,1.27,1.27,0,0,0,.15.29s0-.11-.22-.29a1.72,1.72,0,0,0-.37-.25l.5.21c.33.13.65.27,1,.39a76.07,76.07,0,0,0,17.33,3.9c3,.38,6.06.58,9.11.76,1.52.09,3,.15,4.58.18s3.09.06,4.48,0Z" style="fill:#7f3e3b"></path><path d="M167.05,152.64l1.16,12s22.33,7.26,33.92,1.17c4.36-2.29,4.33-4.39,4.83-9.91s-2.43-9.5-9.6-7.66S185.45,150.35,167.05,152.64Z" style="fill:#FF725E"></path><path d="M169.21,152.69c-.69-1.53-2-2-3.81-1.88s-3.2.33-2.61,2.44a83.35,83.35,0,0,1,1.39,11.25c-.08,1,4.19,1.77,5.47,1.07S170.13,154.71,169.21,152.69Z" style="fill:#FF725E"></path><path d="M169.21,152.69c-.69-1.53-2-2-3.81-1.88s-3.2.33-2.61,2.44a83.35,83.35,0,0,1,1.39,11.25c-.08,1,4.19,1.77,5.47,1.07S170.13,154.71,169.21,152.69Z" style="fill:#fff;opacity:0.30000000000000004"></path><path d="M162.6,147.84l-5.25.77a2,2,0,0,0-1.71,2.13l0,.47a2,2,0,0,0,1.94,1.86l5.77.17a2,2,0,0,0,1.92-2.75l-.56-1.41A2,2,0,0,0,162.6,147.84Z" style="fill:#7f3e3b"></path><path d="M149.93,114.23l2.55-6.32,7.3,8.34s-4.37,4.27-8.86,4.91l-.61-1.1A6.78,6.78,0,0,1,149.93,114.23Z" style="fill:#7f3e3b"></path><path d="M159.86,108.24l2,3a3,3,0,0,1-.67,4l-1.37,1.06-7.3-8.34,4.26-.94A3,3,0,0,1,159.86,108.24Z" style="fill:#7f3e3b"></path><path d="M179.7,399.13a6.46,6.46,0,0,1,.63,3.05c-.07,3.84-.49,14-.49,14h-.9s-.2-5-.64-7.53-1-.41-2.55,2.22-5.55,5.17-11.39,5.31c-6.85.16-9.62-.14-7.63-1.8s6.53-2.73,6.53-2.73,6.57-9.15,6.66-15.61c.09-6.92,8.12.1,9.83-.76C180.32,395.4,179.41,398.55,179.7,399.13Z" style="fill:#263238"></path><path d="M202.05,119.92c-.88-3.2-6.61-15.15-12.12-19.77s-7-4.26-7.75-4.77a1.91,1.91,0,0,1,2.54-1.58c1.5-1.26,3.88-.61,4.95-.1a32.42,32.42,0,0,1,12.47,10.38c3.7,5.11,4.82,8.24,4.38,10.78s-1.44,2.57-1.44,2.57S205.71,120.12,202.05,119.92Z" style="fill:#FF725E"></path><path d="M202,118a1.28,1.28,0,0,0-.74-.35,21.4,21.4,0,0,1,.8,2.17A1.34,1.34,0,0,0,202,118Z" style="fill:#fff"></path><path d="M183,94a1.27,1.27,0,0,0,.37.81,1.35,1.35,0,0,0,1.91,0,1.33,1.33,0,0,0,.26-1.51,3.38,3.38,0,0,0-.8.46A2,2,0,0,0,183,94Z" style="fill:#fff"></path><path d="M189.43,97.12a1.35,1.35,0,0,0-1.91,0,1.32,1.32,0,0,0-.37.87c.53.38,1.12.82,1.78,1.35a1.31,1.31,0,0,0,.5-.31A1.35,1.35,0,0,0,189.43,97.12Z" style="fill:#fff"></path><path d="M193.61,101.3a1.35,1.35,0,0,0-1.91,0,1.27,1.27,0,0,0-.23.34c.54.58,1.09,1.2,1.62,1.88a1.39,1.39,0,0,0,.52-.31A1.35,1.35,0,0,0,193.61,101.3Z" style="fill:#fff"></path><circle cx="196.83" cy="106.43" r="1.35" style="fill:#fff"></circle><circle cx="201.01" cy="110.6" r="1.35" style="fill:#fff"></circle><path d="M204.23,113.82a1.35,1.35,0,0,0,1.91,1.91,1.71,1.71,0,0,0,.29-.43l0-.15a1.34,1.34,0,0,0-2.23-1.33Z" style="fill:#fff"></path><path d="M191.7,94.85a1.3,1.3,0,0,0,.83.38l-.95-.56A1.13,1.13,0,0,0,191.7,94.85Z" style="fill:#fff"></path><path d="M195.87,99a1.34,1.34,0,0,0,1.82.06c-.69-.62-1.36-1.18-2-1.69A1.33,1.33,0,0,0,195.87,99Z" style="fill:#fff"></path><path d="M200.05,103.21a1.33,1.33,0,0,0,1.59.21c-.55-.72-1.1-1.39-1.66-2A1.34,1.34,0,0,0,200.05,103.21Z" style="fill:#fff"></path><path d="M204.23,107.38a.71.71,0,0,0,.18.12c-.16-.27-.36-.57-.54-.85A1.36,1.36,0,0,0,204.23,107.38Z" style="fill:#fff"></path><path d="M197.78,109.65a1.32,1.32,0,0,0-.8-.37c.37.63.73,1.25,1.07,1.88A1.34,1.34,0,0,0,197.78,109.65Z" style="fill:#fff"></path><path d="M202,115.73a1.35,1.35,0,0,0,0-1.91,1.36,1.36,0,0,0-1.91,0,1.32,1.32,0,0,0-.32.56c.28.58.55,1.13.79,1.65A1.34,1.34,0,0,0,202,115.73Z" style="fill:#fff"></path><path d="M204,119.63a1.93,1.93,0,0,0,1.07-2,1.31,1.31,0,0,0-1.07,2Z" style="fill:#fff"></path><path d="M187.42,93.1a1.33,1.33,0,0,0,.1,1.75,1.35,1.35,0,0,0,1.91,0,1.32,1.32,0,0,0,.37-1.09l-.13-.06A6.7,6.7,0,0,0,187.42,93.1Z" style="fill:#fff"></path><path d="M193.61,99a1.35,1.35,0,1,0-1.91,0A1.35,1.35,0,0,0,193.61,99Z" style="fill:#fff"></path><circle cx="196.83" cy="102.25" r="1.35" style="fill:#fff"></circle><circle cx="201.01" cy="106.43" r="1.35" style="fill:#fff"></circle><path d="M204.23,109.65a1.35,1.35,0,0,0,0,1.91,1.36,1.36,0,0,0,1.91,0l.08-.13a15,15,0,0,0-.85-2.14A1.32,1.32,0,0,0,204.23,109.65Z" style="fill:#fff"></path><path d="M189.67,93.71a5.47,5.47,0,0,0-4.26-.33c.83,1.86,3.41,3.26,5.38,3.55a8.29,8.29,0,0,0,1.22-2C190.85,94.25,190,93.86,189.67,93.71Z" style="opacity:0.4"></path><path d="M202.14,104.08a32.72,32.72,0,0,0-7.27-7.3,19.91,19.91,0,0,0-3.22.17c0,2.6,2.77,7.12,7.37,8.11a9.55,9.55,0,0,0,3.86.07C202.65,104.79,202.4,104.44,202.14,104.08Z" style="opacity:0.4"></path><path d="M190.79,96.92c-2.38-.85-5.42-3.91-4.52-6.81s4.33-3.6,4.33-3.6-.52,2.07.22,3.1,2,4.26,1.62,5.14A9.19,9.19,0,0,1,190.79,96.92Z" style="fill:#FF725E"></path><path d="M189.68,99.5c-.52-1.51.18-5.11,3.23-5.31S195,95.51,195,95.51Z" style="fill:#FF725E"></path><path d="M191.87,98.15c.78,2.48,4.82,5.93,9.51,5.47a8.55,8.55,0,0,0,6.55-3.76s-3.31.21-4.74-.67-6.15-2.57-7.59-2.36A17.77,17.77,0,0,0,191.87,98.15Z" style="fill:#FF725E"></path><path d="M189.68,99.5c.27-1.57,3.18-5.15,5.95-3.85s1.45,2.12,0,2.76A22,22,0,0,1,189.68,99.5Z" style="fill:#FF725E"></path><path d="M192.2,99.24a1.83,1.83,0,0,0-2.54-2,4.33,4.33,0,0,0,0,2.22S190.82,99.44,192.2,99.24Z" style="fill:#fff"></path><path d="M198.24,101.39a1.83,1.83,0,0,0-2.51.67,1.47,1.47,0,0,0-.1.22,10.29,10.29,0,0,0,3.43,1.26A1.84,1.84,0,0,0,198.24,101.39Z" style="fill:#fff"></path><path d="M186.49,89.54l.08.06a1.83,1.83,0,0,0,2.48-2.52A5.35,5.35,0,0,0,186.49,89.54Z" style="fill:#fff"></path><path d="M206.82,101.2a6.75,6.75,0,0,0,1.11-1.34s-.65,0-1.49,0A1.88,1.88,0,0,0,206.82,101.2Z" style="fill:#fff"></path><path d="M190.52,94.4a1.83,1.83,0,1,0-3.24-.15,9.06,9.06,0,0,0,.64.75l.1.07A1.82,1.82,0,0,0,190.52,94.4Z" style="fill:#fff"></path><path d="M195.69,95.68a1.83,1.83,0,1,0,1.76,2.74,1.82,1.82,0,0,0,.19-1.32l-.41-.1C197.18,96.62,196.74,96.19,195.69,95.68Z" style="fill:#fff"></path><path d="M204.37,102.44a1.83,1.83,0,1,0-2.5.66,1.88,1.88,0,0,0,1,.25c.26-.07.51-.15.74-.23A1.72,1.72,0,0,0,204.37,102.44Z" style="fill:#fff"></path></g></svg>